HIERARCHY
ROOT Hips
{
	OFFSET 0.00 0.00 0.00
	CHANNELS 6 Xposition Yposition Zposition Xrotation Yrotation Zrotation
	JOINT Spine
	{
		OFFSET 0.00000 1.15266 1.72900
		CHANNELS 3 Xrotation Yrotation Zrotation
		JOINT Spine1
		{
			OFFSET 0.00000 0.40032 2.27031
			CHANNELS 3 Xrotation Yrotation Zrotation
			JOINT Spine2
			{
				OFFSET 0.00000 0.20092 2.29656
				CHANNELS 3 Xrotation Yrotation Zrotation
				JOINT Spine3
				{
					OFFSET 0.00000 0.00000 2.30533
					CHANNELS 3 Xrotation Yrotation Zrotation
					JOINT Neck
					{
						OFFSET 0.00000 -0.86449 6.05149
						CHANNELS 3 Xrotation Yrotation Zrotation
						JOINT Head
						{
							OFFSET 0.00000 -0.55043 3.12167
							CHANNELS 3 Xrotation Yrotation Zrotation
							End Site
							{
								OFFSET 0.00000 0.00000 3.73175
							}
						}
					}
					JOINT RightShoulder
					{
						OFFSET -0.78828 -1.31380 4.25672
						CHANNELS 3 Xrotation Yrotation Zrotation
						JOINT RightArm
						{
							OFFSET -3.91513 0.00000 0.00000
							CHANNELS 3 Xrotation Yrotation Zrotation
							JOINT RightForeArm
							{
								OFFSET -6.91491 0.00000 0.00000
								CHANNELS 3 Xrotation Yrotation Zrotation
								JOINT RightHand
								{
									OFFSET -6.09622 0.00000 0.00000
									CHANNELS 3 Xrotation Yrotation Zrotation
									JOINT RightHandEnd
									{
										OFFSET -1.74995 0.00000 0.00000
										CHANNELS 3 Xrotation Yrotation Zrotation
										End Site
										{
											OFFSET -1.74995 0.00000 0.00000
										}
									}
									JOINT RightHandThumb1
									{
										OFFSET -0.69998 -1.16663 -0.46665
										CHANNELS 3 Yrotation Xrotation Zrotation
										End Site
										{
											OFFSET -1.69032 -0.45292 0.00000
										}
									}
								}
							}
						}
					}
					JOINT LeftShoulder
					{
						OFFSET 0.78828 -1.31380 4.25672
						CHANNELS 3 Xrotation Yrotation Zrotation
						JOINT LeftArm
						{
							OFFSET 3.91513 0.00000 0.00000
							CHANNELS 3 Xrotation Yrotation Zrotation
							JOINT LeftForeArm
							{
								OFFSET 6.91491 0.00000 0.00000
								CHANNELS 3 Xrotation Yrotation Zrotation
								JOINT LeftHand
								{
									OFFSET 6.09622 0.00000 0.00000
									CHANNELS 3 Xrotation Yrotation Zrotation
									JOINT LeftHandEnd
									{
										OFFSET 1.74995 0.00000 0.00000
										CHANNELS 3 Xrotation Yrotation Zrotation
										End Site
										{
											OFFSET 1.74995 0.00000 0.00000
										}
									}
									JOINT LeftHandThumb1
									{
										OFFSET 0.69998 -1.16663 -0.46665
										CHANNELS 3 Yrotation Xrotation Zrotation
										End Site
										{
											OFFSET 1.69032 -0.45292 0.00000
										}
									}
								}
							}
						}
					}
				}
			}
		}
	}
	JOINT RightUpLeg
	{
		OFFSET -2.33857 0.00000 -0.68318
		CHANNELS 3 Xrotation Yrotation Zrotation
		JOINT RightLeg
		{
			OFFSET 0.00000 0.00000 -10.74496
			CHANNELS 3 Xrotation Yrotation Zrotation
			JOINT RightFoot
			{
				OFFSET 0.00000 0.00000 -10.93085
				CHANNELS 3 Xrotation Yrotation Zrotation
				JOINT RightToeBase
				{
					OFFSET 0.00000 -4.08727 -1.48765
					CHANNELS 3 Xrotation Yrotation Zrotation
					End Site
					{
						OFFSET 0.00000 -1.89187 -0.00000
					}
				}
			}
		}
	}
	JOINT LeftUpLeg
	{
		OFFSET 2.33857 0.00000 -0.68318
		CHANNELS 3 Xrotation Yrotation Zrotation
		JOINT LeftLeg
		{
			OFFSET 0.00000 0.00000 -10.74496
			CHANNELS 3 Xrotation Yrotation Zrotation
			JOINT LeftFoot
			{
				OFFSET 0.00000 0.00000 -10.93085
				CHANNELS 3 Xrotation Yrotation Zrotation
				JOINT LeftToeBase
				{
					OFFSET 0.00000 -4.08727 -1.48765
					CHANNELS 3 Xrotation Yrotation Zrotation
					End Site
					{
						OFFSET 0.00000 -1.89187 -0.00000
					}
				}
			}
		}
	}
}
MOTION
Frames: 16
Frame Time:	0.0333333
 -3.6632 52.3650 22.2568 -0.1150 13.6287 174.3953 13.0373 -0.0343 -2.7854 3.6101 0.0191 -0.7439 5.6977 0.3863 -9.2924 0.4115 4.1412 -4.6564 1.2265 12.2559 6.1947 10.1311 0.6461 5.2557 -9.0775 1.6965 4.2039 -56.0465 -5.0910 -16.5984 -0.0000 0.0000 48.0399 -33.3026 19.8998 4.4991 0.0000 0.0000 0.0000 0.0000 0.0000 0.0000 3.9336 -16.0813 3.2414 -79.1690 35.0460 38.6862 -0.0001 -0.0001 -94.5671 -9.8729 -33.1857 -7.4387 0.0000 -0.0000 -0.0000 0.0000 0.0000 -0.0000 -59.0639 1.7267 3.4338 75.7922 0.0000 0.0000 -12.8913 10.6056 -18.8627 -0.8255 0.0000 -0.0000 -19.4162 3.3570 19.6555 70.1482 0.0000 0.0000 -5.4829 8.9028 -16.9210 -29.7094 0.0000 -0.0000
 -3.6219 55.0481 22.3555 -0.8924 18.9430 175.4187 12.0947 2.3809 -3.1252 3.1807 1.0063 -0.6572 4.9031 0.9314 -10.8358 0.0286 4.9371 -4.8653 -1.7304 15.7179 7.4992 8.2434 -0.5514 5.1503 -0.6757 -2.1557 4.0794 -44.4254 -19.6729 -22.2414 -0.0000 0.0000 45.7826 -28.3850 24.7049 -0.5600 -0.0000 -0.0000 0.0000 0.0000 -0.0000 0.0000 7.2634 -1.2922 4.2131 -41.2545 37.0116 15.4228 -0.0000 -0.0001 -82.5007 -11.5867 -26.0210 -7.5269 -0.0000 0.0000 -0.0000 -0.0000 0.0000 0.0000 -49.4754 4.1242 0.2615 49.2495 0.0000 0.0000 -3.3900 12.7725 -14.0495 -0.0433 0.0000 -0.0000 -19.2689 3.6322 19.2799 73.1870 0.0000 0.0000 7.8650 15.4853 -24.5135 -35.9468 0.0000 -0.0000
 -3.3643 57.6338 22.0426 0.4449 21.7135 174.1983 13.3394 4.3586 -3.0608 3.2970 1.8458 -0.4411 4.5244 1.5978 -9.4259 -1.1040 4.6641 -4.1964 -4.8450 16.5663 8.4628 5.7539 -1.4454 2.8057 7.3832 -3.4204 4.6272 -39.4432 -39.0718 -22.7895 -0.0000 0.0000 44.6237 -25.9869 23.3913 -2.8508 0.0000 -0.0000 -0.0000 -0.0000 0.0000 -0.0000 13.0371 6.5292 4.0472 -16.1076 36.2119 0.9059 -0.0000 -0.0001 -76.7508 -15.8207 -24.5034 -8.2195 0.0000 0.0000 0.0000 0.0000 -0.0000 0.0000 -43.2011 3.8491 0.6850 43.9645 0.0000 0.0000 -1.2888 18.5191 -12.6095 0.6047 0.0000 0.0000 -20.1300 -0.8543 18.4011 79.1533 0.0000 0.0000 6.7088 17.4979 -24.1318 -37.0252 0.0000 -0.0000
 -2.9206 59.8832 21.6933 1.9582 21.0258 172.9686 15.1688 4.1475 -2.3531 3.9610 1.9141 -0.2400 5.4895 2.2988 -5.6515 -2.4085 4.3150 -3.1564 -8.7779 15.7248 7.9449 4.3659 -0.2863 -0.6047 10.0266 -8.7241 6.8169 -26.5360 -51.2813 -13.5799 -0.0000 0.0001 49.8461 -21.6523 21.3162 -2.9549 0.0000 -0.0000 -0.0000 -0.0000 -0.0000 0.0000 16.5992 8.7229 2.5538 -12.0316 41.4450 -1.5708 -0.0000 -0.0001 -77.3061 -13.5302 -27.6161 -7.8524 0.0000 0.0000 -0.0000 0.0000 0.0000 -0.0000 -40.3372 1.4444 1.6663 53.3673 0.0000 0.0000 -9.5183 22.1505 -13.6512 2.6217 0.0000 0.0000 -25.5319 -7.5951 13.4498 85.3126 0.0000 0.0000 -3.5263 13.9763 -15.8748 -32.5925 0.0000 -0.0000
 -2.4314 61.8858 21.7230 3.0975 20.0149 171.3757 15.7579 3.7402 -1.5957 4.7827 1.5874 0.1068 7.7080 3.4500 0.2226 -2.9360 4.4271 -1.4965 -11.7096 14.4926 5.3291 5.6621 2.2538 -4.0629 7.0583 -14.4729 8.9319 -5.3792 -55.0415 3.2270 -0.0000 0.0001 60.8681 -11.2807 16.0828 -3.3888 0.0000 0.0000 -0.0000 0.0000 0.0000 0.0000 13.8464 7.8136 2.0495 -21.4832 48.6139 5.1360 -0.0001 -0.0001 -82.9226 -7.8590 -27.7996 -6.9763 -0.0000 0.0000 0.0000 0.0000 0.0000 -0.0000 -35.1509 0.1230 0.8935 58.1473 0.0000 0.0000 -18.2099 22.0420 -12.9967 2.3578 0.0000 0.0000 -33.4854 -10.6684 7.4315 85.5301 0.0000 0.0000 -9.0171 10.3438 -8.5905 -29.0462 0.0000 -0.0000
 -1.9040 63.8228 22.2388 4.4362 20.1030 167.2469 14.9803 4.5941 -0.8401 4.9923 1.6928 0.6540 10.1323 5.2492 7.2800 -2.3119 4.2812 0.7352 -11.8050 13.5418 1.5143 7.9212 3.3637 -7.3442 2.0473 -13.9031 8.0178 17.8317 -53.2056 29.0303 -0.0000 0.0001 69.1331 -0.0347 7.3126 -2.8635 -0.0000 -0.0000 0.0000 0.0000 0.0000 -0.0000 7.5481 4.8018 2.8122 -30.5751 51.1334 11.6955 -0.0001 -0.0001 -87.9146 -5.0087 -22.8584 -5.5336 0.0000 0.0000 -0.0000 -0.0000 -0.0000 -0.0000 -28.0501 -0.2667 1.7251 56.0184 0.0000 0.0000 -19.3719 20.5345 -11.4130 -1.1274 0.0000 -0.0000 -38.5028 -9.9135 5.7732 77.1097 0.0000 0.0000 -7.6840 13.4276 -6.5033 -31.3449 0.0000 -0.0000
 -1.3346 65.7542 22.9628 5.9658 20.3745 161.9875 14.1439 5.9128 -0.3111 4.7420 2.1183 1.1306 11.0592 7.1432 13.2184 -1.3626 3.6084 2.4582 -9.5498 12.4432 -1.3801 8.4775 1.9742 -10.1755 -1.6599 -6.8588 5.9205 32.0814 -44.4772 54.4452 -0.0000 0.0001 74.3342 8.5956 2.5291 -2.0974 -0.0000 0.0000 -0.0000 0.0000 -0.0000 -0.0000 3.9184 1.5929 3.5473 -37.5918 45.8876 15.8318 -0.0001 -0.0001 -91.2360 -4.7843 -22.7671 -4.1108 0.0000 -0.0000 0.0000 -0.0000 0.0000 0.0000 -22.0971 0.2679 4.2200 54.2946 0.0000 0.0000 -14.8002 17.2293 -8.6999 -4.8132 0.0000 -0.0000 -39.8083 -7.3747 7.4343 61.5843 0.0000 0.0000 0.3430 17.1604 -9.2631 -34.6626 0.0000 -0.0000
 -0.8004 67.6511 23.4849 5.6731 19.4697 158.6481 13.3775 5.6015 0.2866 4.3917 2.1129 1.3344 9.8223 8.4334 17.0030 -0.7722 3.1360 2.8274 -6.5823 11.1943 -2.5780 7.2965 -0.2130 -12.9031 -6.2411 2.9433 7.1794 32.7702 -41.1883 65.0354 -0.0000 0.0001 82.9482 12.6458 0.3978 -1.0270 0.0000 0.0000 0.0000 -0.0000 -0.0000 0.0000 4.2959 0.8567 4.3846 -46.9028 32.1236 18.0549 -0.0001 -0.0001 -93.6210 -6.5347 -25.9243 -3.9205 0.0000 0.0000 -0.0000 -0.0000 -0.0000 -0.0000 -20.6037 0.6928 6.0909 57.9577 0.0000 0.0000 -10.1131 10.4334 -3.7993 -4.6736 0.0000 -0.0000 -40.6205 -4.5636 8.2933 42.2005 0.0000 0.0000 13.7957 18.0413 -15.6752 -39.3329 0.0000 -0.0000
 -0.2617 69.7614 23.4655 4.4192 16.0100 155.8913 12.4163 2.7967 1.8079 4.1014 1.6271 1.4822 6.6513 8.5348 21.7648 0.1267 2.7845 3.2985 -2.0892 10.0869 -5.0561 5.9292 -1.4790 -16.8571 -11.3304 14.3716 9.6213 26.4426 -47.8737 63.1198 -0.0000 0.0001 93.1085 9.8509 -0.0953 0.0337 -0.0000 -0.0000 -0.0000 -0.0000 -0.0000 0.0000 6.0422 -0.6142 4.4583 -56.8035 18.1745 16.0574 -0.0001 -0.0001 -91.5503 -9.5680 -26.6957 -4.8523 -0.0000 -0.0000 -0.0000 -0.0000 0.0000 0.0000 -20.8027 -1.0941 6.7579 66.5503 0.0000 0.0000 -8.0247 4.1586 0.9852 -1.9958 0.0000 -0.0000 -38.8925 -3.3021 6.9203 21.2801 0.0000 0.0000 28.4250 19.9685 -22.8054 -43.2207 0.0000 -0.0000
 0.4249 72.2771 22.8295 4.7213 10.5260 151.8084 11.7558 -0.4371 3.5959 3.6710 1.1737 1.7772 2.9690 6.8867 29.1710 1.0609 1.6669 5.5775 4.9562 8.7138 -11.3635 3.9695 -2.5941 -22.5100 -13.0943 27.3859 10.7510 6.5447 -58.1145 43.9692 -0.0000 0.0001 99.8442 3.2792 1.4781 -0.4149 0.0000 -0.0000 0.0000 -0.0000 0.0000 -0.0000 7.3065 -7.6621 2.3245 -64.8402 10.8593 13.8889 -0.0001 -0.0001 -86.6299 -10.6789 -27.1945 -5.4511 -0.0000 0.0000 0.0000 0.0000 -0.0000 -0.0000 -18.0719 -4.3452 6.7047 79.1838 0.0000 0.0000 -10.7042 4.0104 0.5949 -0.7413 0.0000 -0.0000 -34.0865 -3.5872 -0.8113 7.2011 0.0000 0.0000 34.9902 25.6296 -21.3066 -42.3936 0.0000 -0.0000
 1.0307 74.7277 21.9451 6.4805 9.6699 149.4735 10.9170 1.2078 2.9594 2.5571 0.7262 2.0280 0.8785 5.1880 34.4706 0.7263 0.4492 8.0476 10.4251 7.5329 -18.6488 -0.5374 -4.6191 -28.8266 -13.9551 37.2915 12.1613 -26.6364 -58.6524 10.7200 -0.0000 0.0001 100.0255 2.0741 3.1078 -2.5126 -0.0000 0.0000 -0.0000 -0.0000 -0.0000 -0.0000 6.9256 -13.7853 -0.6632 -74.7211 4.6788 8.1497 -0.0000 -0.0001 -80.9130 -10.3339 -27.8075 -5.4685 -0.0000 0.0000 0.0000 0.0000 0.0000 0.0000 -16.0235 -0.7703 5.4552 94.9095 0.0000 0.0000 -16.1140 8.0625 -4.7823 -0.4820 0.0000 -0.0000 -33.1780 0.3339 -5.8374 8.0548 0.0000 0.0000 30.6008 26.1994 -16.0048 -40.2854 0.0000 -0.0000
 1.4020 76.8018 20.9929 9.1171 11.1966 149.8322 10.9894 4.5747 0.9784 1.8635 0.3893 2.0195 0.5426 4.5624 34.1094 -0.0990 0.2879 8.2217 9.9678 7.8904 -22.5300 -5.2441 -5.4720 -34.6358 -19.3691 40.4115 15.5815 -44.3529 -50.2984 -3.8144 -0.0000 0.0001 93.7053 10.2176 4.8407 -4.3418 0.0000 -0.0000 0.0000 -0.0000 -0.0000 -0.0000 3.7774 -13.2236 -1.2604 -87.3190 0.4013 -6.8125 -0.0000 -0.0001 -73.5500 -9.5640 -25.8221 -5.0806 0.0000 -0.0000 0.0000 0.0000 -0.0000 0.0000 -15.7052 7.7646 4.1691 110.6757 0.0000 0.0000 -20.4287 10.7627 -10.2781 0.1775 0.0000 0.0000 -40.1895 6.7184 -1.6257 28.8278 0.0000 0.0000 16.9060 16.6571 -16.8156 -35.0213 0.0000 -0.0000
 1.8480 78.5223 20.0553 11.2620 6.6820 149.0756 12.8597 2.9411 1.4288 2.7115 -0.0107 1.9306 1.1485 4.3373 31.1497 -0.6819 0.4545 7.0840 4.4763 8.0860 -23.6930 -5.4234 -3.3395 -38.4732 -21.7382 36.6196 13.7180 -52.0022 -43.9049 0.5414 -0.0000 0.0001 82.8674 15.5881 10.4979 -4.5389 0.0000 0.0000 0.0000 -0.0000 -0.0000 0.0000 -1.2130 -10.9056 -1.2948 -98.8382 4.9406 -22.4853 -0.0000 -0.0001 -67.0932 -6.3466 -25.7053 -5.4151 0.0000 -0.0000 0.0000 -0.0000 0.0000 -0.0000 -15.1912 9.4775 5.7965 122.6695 0.0000 0.0000 -23.2853 13.6244 -13.4815 0.1342 0.0000 0.0000 -44.8636 5.2148 0.6886 53.3630 0.0000 0.0000 -0.3654 8.2980 -18.3709 -24.0920 0.0000 -0.0000
 2.1730 79.8281 19.5860 12.8569 2.4928 146.2555 14.0413 1.8010 1.5833 3.7023 -0.4428 1.8707 2.4048 4.0953 29.6763 -0.9302 -0.0183 6.5997 -0.4158 8.4362 -24.2337 -3.3183 -0.8000 -40.3689 -14.8221 28.4294 5.0122 -63.9863 -45.6572 8.7496 -0.0000 0.0001 73.6949 8.4960 16.8169 -1.4497 -0.0000 0.0000 -0.0000 -0.0000 0.0000 0.0000 -4.9148 -11.7818 -3.0188 -107.6972 14.2159 -23.3101 -0.0000 -0.0001 -72.6481 1.6958 -30.3406 -4.2595 0.0000 -0.0000 0.0000 -0.0000 0.0000 0.0000 -19.4437 9.1857 12.5643 128.8838 0.0000 0.0000 -26.2069 16.6816 -15.1308 -1.3245 0.0000 -0.0000 -44.4633 2.4695 1.4727 66.7032 0.0000 0.0000 -11.4432 6.5084 -17.4366 -17.0557 0.0000 -0.0000
 2.4450 80.8292 19.6584 13.5221 -0.6171 142.9133 14.2329 1.2873 0.9766 3.9654 -0.8093 1.7344 3.7262 3.5100 28.9471 -0.9689 -0.7694 6.7567 -2.1017 8.6335 -24.2264 -1.3841 0.4915 -40.9465 -6.0673 20.7893 -0.9636 -84.3836 -54.7175 -0.5372 -0.0000 0.0001 74.4388 -5.6539 17.1372 3.0694 -0.0000 -0.0000 -0.0000 0.0000 -0.0000 0.0000 -6.7192 -16.3057 -5.8912 -112.9394 17.1738 -10.4715 -0.0001 -0.0001 -86.5981 10.5540 -33.9762 -0.7549 -0.0000 0.0000 0.0000 0.0000 0.0000 -0.0000 -25.8354 7.3729 19.2725 126.4222 0.0000 0.0000 -27.9147 17.9142 -19.2931 -3.0889 0.0000 -0.0000 -41.1233 0.8200 1.9623 70.9614 0.0000 0.0000 -16.0881 5.3976 -14.2019 -15.4204 0.0000 -0.0000
 2.7254 81.6383 20.0842 13.5124 -3.0223 141.0590 14.0833 0.6986 0.5527 3.8152 -1.0388 1.4845 4.6457 2.6460 26.1827 -1.0298 -1.1088 6.3789 -2.3502 7.9277 -23.3703 -0.1306 0.8444 -40.4607 -3.1453 16.6243 -0.6039 -102.5263 -57.5271 -26.6689 -0.0000 0.0001 80.6079 -11.8418 13.8151 3.4361 0.0000 -0.0000 -0.0000 0.0000 -0.0000 0.0000 -8.2139 -18.7641 -7.6539 -110.4181 16.7715 3.0830 -0.0001 -0.0001 -95.9909 14.6628 -34.7067 2.0238 -0.0000 -0.0000 0.0000 -0.0000 0.0000 0.0000 -31.3427 5.7801 20.5556 115.4531 0.0000 0.0000 -26.5351 17.1766 -23.9442 -2.9040 0.0000 -0.0000 -36.8365 0.8280 1.1001 70.7994 0.0000 0.0000 -16.7002 2.6658 -10.6818 -14.7045 0.0000 -0.0000
